<?xml version="1.0" encoding="iso-8859-1"?>
<!-- Generator: Adobe Illustrator 16.0.0, SVG Export Plug-In . SVG Version: 6.00 Build 0)  -->
<!DOCTYPE svg PUBLIC "-//W3C//DTD SVG 1.1//EN" "http://www.w3.org/Graphics/SVG/1.1/DTD/svg11.dtd">
<svg xmlns="http://www.w3.org/2000/svg" xmlns:xlink="http://www.w3.org/1999/xlink" version="1.1" id="Capa_1" x="0px" y="0px" width="512px" height="512px" viewBox="0 0 480 480" style="enable-background:new 0 0 480 480;" xml:space="preserve">
<g>
	<path d="M91.188,113.2c-32.9,35.1-53.1,82.3-53.1,134.3c0,108.5,87.9,232.5,196.4,232.5c108.5,0,196.401-124,196.401-232.5   c0-51.9-20.201-99.2-53.102-134.3c-7.699-8.2-23.6-14.6-44.299-19.3c-2.4,4.5-4.9,9-7.301,13.5c-0.1,0.2-0.199,0.4-0.299,0.6   c-0.102,0.2-0.201,0.4-0.301,0.5c24.199,5.7,32.9,11.6,32.9,15c0,10.5-74.601,10.5-124,10.5s-124,0-124-10.5c0-3.5,9.4-9.8,36-15.7   c25.4-5.7,56.7-8.8,88-8.8c15.2,0,30.4,0.7,44.9,2.1c0.101-0.2,0.2-0.4,0.3-0.5c0.1-0.2,0.2-0.4,0.301-0.5   c2.399-4.4,4.799-8.8,7.1-13.2C211.188,79.9,114.188,88.7,91.188,113.2z" fill="#fd5c63"/>
	<path d="M305.588,121c2.699-5,5.4-10,8.1-15c0.1-0.2,0.201-0.4,0.301-0.5c0.1-0.2,0.199-0.4,0.299-0.6c2.4-4.5,4.9-9,7.301-13.4   c14.6-27,28.301-52.2,38.5-70.6h71.699c13.5,0,13.5-20.9,0-20.9h-77.398c-3.9,0-6.602,1.7-8.301,4.2c-0.801,0.7-1.6,1.7-2.199,2.8   c-11.301,20.1-27.4,49.8-44.301,81.2c-2.4,4.4-4.801,8.8-7.2,13.3c-0.101,0.2-0.2,0.4-0.3,0.5c-0.1,0.2-0.2,0.4-0.301,0.5   c-3.399,6.3-6.799,12.7-10.199,19c2.1,0.1,4.199,0.1,6.3,0.1C293.787,121.6,299.688,121.4,305.588,121z" fill="#fd5c63"/>
</g>
<g>
</g>
<g>
</g>
<g>
</g>
<g>
</g>
<g>
</g>
<g>
</g>
<g>
</g>
<g>
</g>
<g>
</g>
<g>
</g>
<g>
</g>
<g>
</g>
<g>
</g>
<g>
</g>
<g>
</g>
</svg>
